<svg width="32" height="32" viewBox="0 0 32 32" fill="none" xmlns="http://www.w3.org/2000/svg">
<path d="M29.3332 0H2.6668C1.2004 0 0 1.2004 0 2.6668V29.3336C0 30.7992 1.2004 32 2.6668 32H29.3332C30.7996 32 32 30.7992 32 29.3336V2.6668C32 1.2004 30.7996 0 29.3332 0ZM29.3332 29.3336H18.6668V18.6664H25.3332V16H18.6668V13.3332C18.6668 11.1236 20.4584 9.3332 22.6668 9.3332H25.3332V6.6664H22.6668C18.9856 6.6668 16 9.6504 16 13.3332V16H13.3332V18.6664H16V29.3336H2.6668V2.6668H29.3332V29.3336Z" fill="#F5F2F7"/>
</svg>
