<?xml version="1.0" encoding="utf-8"?>
<!-- Generator: Adobe Illustrator 24.3.0, SVG Export Plug-In . SVG Version: 6.00 Build 0)  -->
<svg version="1.1" id="Layer_1" xmlns="http://www.w3.org/2000/svg" xmlns:xlink="http://www.w3.org/1999/xlink" x="0px" y="0px"
	 viewBox="0 0 32 32" style="enable-background:new 0 0 32 32;" xml:space="preserve">
<style type="text/css">
	.st0{fill:#8134AF;}
	.st1{display:none;fill:#8134AF;}
	.st2{fill:#FFFFFF;}
</style>
<path class="st0" d="M29.1,32H2.9C1.3,32,0,30.7,0,29.1V2.9C0,1.3,1.3,0,2.9,0h26.3C30.7,0,32,1.3,32,2.9v26.3
	C32,30.7,30.7,32,29.1,32z"/>
<path class="st1" d="M29.3,0H2.7C1.2,0,0,1.2,0,2.7v26.7C0,30.8,1.2,32,2.7,32h26.7c1.5,0,2.7-1.2,2.7-2.7V2.7C32,1.2,30.8,0,29.3,0
	z M29.3,29.3H2.7v-12h5.5C8.8,21.1,12,24,16,24c4,0,7.2-2.9,7.9-6.7h5.5V29.3z M10.7,16c0-2.9,2.4-5.3,5.3-5.3
	c2.9,0,5.3,2.4,5.3,5.3s-2.4,5.3-5.3,5.3C13.1,21.3,10.7,18.9,10.7,16z M29.3,14.7h-5.5C23.2,10.9,20,8,16,8c-4,0-7.2,2.9-7.9,6.7
	H2.7v-12h26.7V14.7z"/>
<circle class="st2" cx="16" cy="16" r="7.9"/>
<rect x="0" y="14.7" class="st2" width="8.8" height="2.7"/>
<rect x="22.8" y="14.7" class="st2" width="9.2" height="2.7"/>
<circle class="st0" cx="16" cy="16" r="5.3"/>
</svg>
