<?xml version="1.0" encoding="utf-8"?>
<!-- Generator: Adobe Illustrator 24.3.0, SVG Export Plug-In . SVG Version: 6.00 Build 0)  -->
<svg version="1.1" id="Layer_1" xmlns="http://www.w3.org/2000/svg" xmlns:xlink="http://www.w3.org/1999/xlink" x="0px" y="0px"
	 viewBox="0 0 32 32" style="enable-background:new 0 0 32 32;" xml:space="preserve">
<style type="text/css">
	.st0{fill:#E5E5E5;}
	.st1{fill:#8134AF;}
</style>
<path class="st0" d="M29.3,0H2.7C1.2,0,0,1.2,0,2.7v26.7C0,30.8,1.2,32,2.7,32h26.7c1.5,0,2.7-1.2,2.7-2.7V2.7C32,1.2,30.8,0,29.3,0
	z M29.4,29.3H2.7v-12h5.5C8.8,21.1,12,24,16,24s7.2-2.9,7.9-6.7h5.5V29.3z M10.7,16c0-0.2,0-0.4,0-0.5c0-0.2,0-0.4,0.1-0.5
	c0-0.1,0.1-0.3,0.1-0.4c0,0,0-0.1,0-0.1c0-0.1,0.1-0.3,0.2-0.4c0.1-0.2,0.1-0.3,0.2-0.5c0.1-0.1,0.1-0.2,0.2-0.3
	c0.1-0.1,0.1-0.2,0.2-0.3c0.1-0.1,0.2-0.2,0.2-0.3c0.2-0.2,0.3-0.4,0.5-0.5c0.1-0.1,0.2-0.2,0.3-0.2c0.1-0.1,0.2-0.2,0.3-0.2
	c0.1-0.1,0.2-0.1,0.3-0.2c0.2-0.1,0.3-0.2,0.5-0.2c0.1-0.1,0.3-0.1,0.4-0.2c0,0,0.1,0,0.1,0c0.1,0,0.3-0.1,0.4-0.1
	c0.2,0,0.4-0.1,0.5-0.1c0.2,0,0.4,0,0.5,0s0.4,0,0.5,0c0.2,0,0.4,0,0.5,0.1c0.1,0,0.3,0.1,0.4,0.1c0,0,0.1,0,0.1,0
	c0.1,0,0.3,0.1,0.4,0.2c0.2,0.1,0.3,0.1,0.5,0.2c0.1,0.1,0.2,0.1,0.3,0.2c0.1,0.1,0.2,0.1,0.3,0.2c0.1,0.1,0.2,0.2,0.3,0.2
	c0.2,0.2,0.4,0.3,0.5,0.5c0.1,0.1,0.2,0.2,0.2,0.3c0.1,0.1,0.2,0.2,0.2,0.3c0.1,0.1,0.1,0.2,0.2,0.3c0.1,0.2,0.2,0.3,0.2,0.5
	c0.1,0.1,0.1,0.3,0.2,0.4c0,0,0,0.1,0,0.1c0,0.1,0.1,0.3,0.1,0.4c0,0.2,0.1,0.4,0.1,0.5c0,0.2,0,0.4,0,0.5s0,0.4,0,0.5
	c0,0.2,0,0.4-0.1,0.5c0,0.2-0.1,0.4-0.2,0.6c0,0.1-0.1,0.3-0.2,0.4c-0.1,0.2-0.1,0.3-0.2,0.5c-0.1,0.1-0.1,0.2-0.2,0.3
	c-0.1,0.1-0.1,0.2-0.2,0.3c-0.3,0.4-0.7,0.8-1.1,1.1c-0.1,0.1-0.2,0.2-0.3,0.2c-0.1,0.1-0.2,0.1-0.3,0.2c-0.2,0.1-0.3,0.2-0.5,0.2
	c-0.1,0.1-0.3,0.1-0.4,0.2c-0.2,0.1-0.4,0.1-0.6,0.2c-0.2,0-0.4,0.1-0.5,0.1c-0.2,0-0.4,0-0.5,0s-0.4,0-0.5,0c-0.2,0-0.4,0-0.5-0.1
	c-0.2,0-0.4-0.1-0.6-0.2c-0.1,0-0.3-0.1-0.4-0.2c-0.2-0.1-0.3-0.1-0.5-0.2c-0.1-0.1-0.2-0.1-0.3-0.2c-0.1-0.1-0.2-0.1-0.3-0.2
	c-0.4-0.3-0.8-0.7-1.1-1.1c-0.1-0.1-0.2-0.2-0.2-0.3c-0.1-0.1-0.1-0.2-0.2-0.3c-0.1-0.2-0.2-0.3-0.2-0.5c-0.1-0.1-0.1-0.3-0.2-0.4
	c-0.1-0.2-0.1-0.4-0.2-0.6c0-0.2-0.1-0.4-0.1-0.5C10.7,16.4,10.7,16.2,10.7,16z M29.4,14.7h-5.6C23.2,10.9,20,8,16,8
	s-7.2,2.9-7.9,6.7H2.7v-12h26.7V14.7z"/>
<path class="st1" d="M21.3,16c0,0.2,0,0.4,0,0.5c0,0.2,0,0.4-0.1,0.5c0,0.2-0.1,0.4-0.2,0.6c0,0.1-0.1,0.3-0.2,0.4
	c-0.1,0.2-0.1,0.3-0.2,0.5c-0.1,0.1-0.1,0.2-0.2,0.3c-0.1,0.1-0.1,0.2-0.2,0.3c-0.3,0.4-0.7,0.8-1.1,1.1c-0.1,0.1-0.2,0.2-0.3,0.2
	c-0.1,0.1-0.2,0.1-0.3,0.2c-0.2,0.1-0.3,0.2-0.5,0.2c-0.1,0.1-0.3,0.1-0.4,0.2c-0.2,0.1-0.4,0.1-0.6,0.2c-0.2,0-0.4,0.1-0.5,0.1
	c-0.2,0-0.4,0-0.5,0s-0.4,0-0.5,0c-0.2,0-0.4,0-0.5-0.1c-0.2,0-0.4-0.1-0.6-0.2c-0.1,0-0.3-0.1-0.4-0.2c-0.2-0.1-0.3-0.1-0.5-0.2
	c-0.1-0.1-0.2-0.1-0.3-0.2c-0.1-0.1-0.2-0.1-0.3-0.2c-0.4-0.3-0.8-0.7-1.1-1.1c-0.1-0.1-0.2-0.2-0.2-0.3c-0.1-0.1-0.1-0.2-0.2-0.3
	c-0.1-0.2-0.2-0.3-0.2-0.5c-0.1-0.1-0.1-0.3-0.2-0.4c-0.1-0.2-0.1-0.4-0.2-0.6c0-0.2-0.1-0.4-0.1-0.5c0-0.2,0-0.4,0-0.5s0-0.4,0-0.5
	c0-0.2,0-0.4,0.1-0.5c0-0.1,0.1-0.3,0.1-0.4c0,0,0-0.1,0-0.1c0-0.1,0.1-0.3,0.2-0.4c0.1-0.2,0.1-0.3,0.2-0.5
	c0.1-0.1,0.1-0.2,0.2-0.3c0.1-0.1,0.1-0.2,0.2-0.3c0.1-0.1,0.2-0.2,0.2-0.3c0.2-0.2,0.3-0.4,0.5-0.5c0.1-0.1,0.2-0.2,0.3-0.2
	c0.1-0.1,0.2-0.2,0.3-0.2c0.1-0.1,0.2-0.1,0.3-0.2c0.2-0.1,0.3-0.2,0.5-0.2c0.1-0.1,0.3-0.1,0.4-0.2c0,0,0.1,0,0.1,0
	c0.1,0,0.3-0.1,0.4-0.1c0.2,0,0.4-0.1,0.5-0.1c0.2,0,0.4,0,0.5,0s0.4,0,0.5,0c0.2,0,0.4,0,0.5,0.1c0.1,0,0.3,0.1,0.4,0.1
	c0,0,0.1,0,0.1,0c0.1,0,0.3,0.1,0.4,0.2c0.2,0.1,0.3,0.1,0.5,0.2c0.1,0.1,0.2,0.1,0.3,0.2c0.1,0.1,0.2,0.1,0.3,0.2
	c0.1,0.1,0.2,0.2,0.3,0.2c0.2,0.2,0.4,0.3,0.5,0.5c0.1,0.1,0.2,0.2,0.2,0.3c0.1,0.1,0.2,0.2,0.2,0.3c0.1,0.1,0.1,0.2,0.2,0.3
	c0.1,0.2,0.2,0.3,0.2,0.5c0.1,0.1,0.1,0.3,0.2,0.4c0,0,0,0.1,0,0.1c0,0.1,0.1,0.3,0.1,0.4c0,0.2,0.1,0.4,0.1,0.5
	C21.3,15.6,21.3,15.8,21.3,16z"/>
<path class="st1" d="M29.4,17.3v12H2.7v-12h5.5C8.8,21.1,12,24,16,24s7.2-2.9,7.9-6.7H29.4z"/>
<path class="st1" d="M29.4,2.7v12h-5.6C23.2,10.9,20,8,16,8s-7.2,2.9-7.9,6.7H2.7v-12H29.4z"/>
</svg>
