<svg width="32" height="32" viewBox="0 0 32 32" fill="none" xmlns="http://www.w3.org/2000/svg">
<path d="M29.3332 0H2.6668C1.2004 0 0 1.2004 0 2.6668V29.3336C0 30.7992 1.2004 32 2.6668 32H29.3332C30.7996 32 32 30.7992 32 29.3336V2.6668C32 1.2004 30.7996 0 29.3332 0ZM29.3332 29.3336H2.6668V17.3336H8.12C8.7568 21.1148 12.038 24 16.0012 24C19.962 24 23.2432 21.1148 23.88 17.3336H29.3332V29.3336ZM10.6668 16C10.6668 13.0548 13.0548 10.6668 16.0012 10.6668C18.9452 10.6668 21.3332 13.0548 21.3332 16C21.3332 18.9452 18.9452 21.3336 16.0012 21.3336C13.0548 21.3336 10.6668 18.9452 10.6668 16ZM29.3332 14.6668H23.88C23.2432 10.8852 19.962 8 16.0012 8C12.038 8 8.7568 10.8852 8.12 14.6668H2.6668V2.6668H29.3332V14.6668Z" fill="#F5F2F7"/>
</svg>
