<?xml version="1.0" encoding="utf-8"?>
<!-- Generator: Adobe Illustrator 24.3.0, SVG Export Plug-In . SVG Version: 6.00 Build 0)  -->
<svg version="1.1" id="Layer_1" xmlns="http://www.w3.org/2000/svg" xmlns:xlink="http://www.w3.org/1999/xlink" x="0px" y="0px"
	 viewBox="0 0 40 40" style="enable-background:new 0 0 40 40;" xml:space="preserve">
<style type="text/css">
	.st0{fill:#E5E5E5;}
</style>
<path class="st0" d="M36.6,0H3.4C1.5,0,0,1.5,0,3.4v33.4C0,38.5,1.5,40,3.4,40h33.4c1.9,0,3.4-1.5,3.4-3.4V3.4C40,1.5,38.5,0,36.6,0
	z M36.7,36.6H3.4V3.4h33.4V36.6z"/>
<path class="st0" d="M13.4,16.6H10V30h3.4V16.6z"/>
<path class="st0" d="M11.6,15c1.4,0,2.5-1.1,2.5-2.5S13,10,11.6,10s-2.5,1.1-2.5,2.5S10.2,15,11.6,15z"/>
<path class="st0" d="M23.4,16.6c-1.2,0-2.4,0.4-3.4,0.9v-0.8h-3.4V30H20v-6.6c0-1.9,1.5-3.4,3.4-3.4s3.4,1.5,3.4,3.4V30H30v-6.6
	C30,19.6,27,16.6,23.4,16.6z"/>
</svg>
