<svg width="32" height="32" viewBox="0 0 32 32" fill="none" xmlns="http://www.w3.org/2000/svg">
<path d="M29.3332 6.6668C29.3332 2.9848 26.3488 0 22.6668 0C18.9844 0 16 2.9848 16 6.6668V10.6668C10.2316 10.6668 5.078 8.0472 1.6536 3.9372C-1.8176 11.562 0.3568 20.7036 7.1056 25.9128C5.2188 27.6044 2.7316 28.6408 0 28.6408C3.0248 30.7524 6.698 32 10.6668 32C20.9776 32 29.3332 23.6408 29.3332 13.3332V9.3332L32 6.6668H29.3332ZM26.6668 13.3332C26.6668 22.1564 19.4896 29.3332 10.6668 29.3332C9.5808 29.3332 8.5088 29.224 7.4636 29.01C7.958 28.674 8.4336 28.3028 8.8856 27.8984L11.2708 25.76L8.7344 23.8016C4.0612 20.1932 1.922 14.4208 2.9012 8.8368C6.6132 11.7308 11.2004 13.3328 16 13.3328H18.6668V6.6668C18.6668 4.4612 20.4608 2.6668 22.6668 2.6668C24.8724 2.6668 26.6668 4.4612 26.6668 6.6668V13.3332Z" fill="#F5F2F7"/>
</svg>
