<svg width="38" height="38" viewBox="0 0 38 38" fill="none" xmlns="http://www.w3.org/2000/svg">
<g clip-path="url(#clip0)">
<path d="M38 6.75391H17.6047L15.0442 37.6141C15.4969 37.8367 15.9793 38 16.5137 38H38V6.75391Z" fill="#DAE2F2"/>
<path d="M12.6099 30.2738L15.0517 37.6141C15.0517 37.6141 15.7642 36.7754 20.9001 31.2461L12.6099 30.2738Z" fill="#5245AF"/>
<path d="M20.9 31.2461L17.7605 0H0V31.2461H20.9Z" fill="#7766F6"/>
<path d="M13.0327 17.4414H7.25107L6.14522 20.4621H4.79443L9.4331 7.91914H10.8729L15.4894 20.4621H14.146L13.0327 17.4414ZM10.1456 9.50742L7.63701 16.3801H12.6542L10.1456 9.50742Z" fill="white"/>
<path d="M23.5868 27.0379C23.4087 26.6148 23.1267 26.2586 22.7778 25.9914C24.3216 25.8207 25.7317 25.2344 27.1345 24.2324C25.8431 22.9187 25.0118 21.6422 24.5962 20.5957L25.6056 20.3285C25.8728 21.2785 26.8821 22.7258 27.8915 23.6535C28.9603 22.7258 29.8286 21.3676 30.1403 20.1355C30.504 20.3137 30.9493 20.4695 31.2981 20.5586C31.5282 20.618 31.5356 20.7887 31.3204 20.8629C31.1794 20.9074 30.9493 21.1895 30.6673 21.7312C30.2442 22.5625 29.4872 23.5125 28.6708 24.2695C29.8286 25.0266 31.4985 25.5461 33.5692 25.5906C33.1981 25.9172 32.8567 26.4664 32.738 26.9117C30.9196 26.6223 29.22 25.9988 27.8841 24.9152C26.6075 25.8801 24.9821 26.652 23.5868 27.0379ZM29.1978 17.9238C29.1829 17.2039 29.1532 16.625 29.079 16.202C29.4649 16.2762 29.9548 16.3133 30.2962 16.2984C30.4372 16.2984 30.504 16.4098 30.3407 16.5137C30.2294 16.5879 30.1997 16.6547 30.1997 16.8402V17.9238C31.4985 17.9238 32.4485 17.8867 33.2501 17.8422V18.9258C32.456 18.8516 31.506 18.8145 30.1997 18.8145V19.898H29.1978V18.8145H26.8153V20.0465H25.8431V18.8145C24.6259 18.8293 23.7501 18.859 22.9782 18.9258V17.8273C23.7278 17.8867 24.6185 17.909 25.8431 17.9238C25.8282 17.3078 25.7985 16.7215 25.7243 16.2613C26.1103 16.3207 26.5927 16.3578 26.9192 16.3578C27.0603 16.3578 27.0899 16.4766 26.9638 16.573C26.845 16.6473 26.8228 16.7141 26.8228 16.8996V17.9238H29.1978Z" fill="black"/>
</g>
<defs>
<clipPath id="clip0">
<rect width="38" height="38" fill="white"/>
</clipPath>
</defs>
</svg>
