<svg width="100" height="98" viewBox="0 0 100 98" fill="none" xmlns="http://www.w3.org/2000/svg">
<path d="M100 90.6255V0.0326653L86.7891 7.92983V98L100 90.6255Z" fill="#7766F6"/>
<path d="M0.122925 90.5928V0L13.3339 7.89717V97.9673L0.122925 90.5928Z" fill="#7766F6"/>
<path d="M12.3258 6.97434L49.3935 27.3583V43.1608L0 18.4893L0.204884 0.0408363L12.3258 6.97434Z" fill="#7766F6"/>
<path d="M12.3258 47.4728L23.1356 53.8265V75.0435L0 64.4023L0.204884 40.5475L12.3258 47.4728Z" fill="#7766F6"/>
<path d="M76.8808 12.6093L49.2952 27.3093L49.3935 43.1608L99.3935 14.2753L100 0.0408363L76.8808 12.6093Z" fill="#7766F6"/>
<path d="M67.0464 57.6975V78.0243L49.5657 87.465V67.8568L67.0382 57.7057L67.0464 57.6975Z" fill="#7766F6"/>
<path d="M49.5657 67.8568V87.465L32.085 78.0243V57.6975L32.0932 57.7057L49.5657 67.8568Z" fill="#7766F6"/>
<path d="M87.6659 47.4728L76.8562 53.8265V75.0435L99.9999 64.4023L99.7951 40.5475L87.6659 47.4728Z" fill="#7766F6"/>
</svg>
