<svg width="142" height="160" viewBox="0 0 142 160" fill="none" xmlns="http://www.w3.org/2000/svg">
<g clip-path="url(#clip0)">
<path d="M0 159.76V147H8.25V147.9H0.89V152.9H6.65V153.82H0.89V159.72L0 159.76Z" fill="#6A66A6"/>
<path d="M28.86 159.77L23.57 153.34H25.14C25.9395 153.364 26.7365 153.238 27.49 152.97C27.945 152.747 28.3421 152.422 28.65 152.02C28.9642 151.617 29.1364 151.121 29.14 150.61C29.1347 150.145 28.9921 149.693 28.73 149.31C28.4274 148.882 28.0215 148.538 27.55 148.31C27.0027 148.042 26.3993 147.908 25.79 147.92H22.22V159.78H21.34V147H25.81C26.3821 146.994 26.9508 147.088 27.49 147.28C27.9954 147.457 28.4609 147.732 28.86 148.09C29.2261 148.415 29.525 148.809 29.74 149.25C29.9863 149.775 30.0839 150.357 30.0222 150.934C29.9605 151.51 29.7418 152.059 29.39 152.52C28.9857 153.071 28.4398 153.503 27.81 153.77C27.4369 153.944 27.0387 154.059 26.63 154.11C26.2219 154.159 25.811 154.183 25.4 154.18L30.01 159.77H28.86Z" fill="#6A66A6"/>
<path d="M44.74 156.54L43.23 159.77H42.23L48.23 146.88L53.89 159.78H52.89L51.46 156.54H44.74ZM48.21 149.05L45.15 155.66H51.15L48.21 149.05Z" fill="#6A66A6"/>
<path d="M76.34 159.79H75.16L70.6 154.36L66.48 160V147H67.36V157.22L74.81 147.05H75.91L71.13 153.59L76.34 159.79Z" fill="#6A66A6"/>
<path d="M99.2801 147.06V147.96H94.2801V159.8H93.3701V148H88.3101V147.1L99.2801 147.06Z" fill="#6A66A6"/>
<path d="M111.81 156.57L110.3 159.8H109.3L115.3 146.91L120.96 159.81H119.96L118.53 156.57H111.81ZM115.28 149.08L112.22 155.69H118.22L115.28 149.08Z" fill="#6A66A6"/>
<path d="M133.58 159.81V147.07H134.47V158.93H141.63V159.82L133.58 159.81Z" fill="#6A66A6"/>
<path d="M125.7 110.2V0.0400391L109.69 9.64004V119.17L125.7 110.2Z" fill="#7766F6"/>
<path d="M4.67004 110.16V0L20.69 9.61V119.13L4.67004 110.16Z" fill="#7766F6"/>
<path d="M19.47 8.4798L64.38 33.2698V52.4798L4.53003 22.4798L4.77003 0.0498047L19.47 8.4798Z" fill="#7766F6"/>
<path d="M19.47 57.7298L32.56 65.4498V91.2498L4.53003 78.3098L4.77003 49.2998L19.47 57.7298Z" fill="#7766F6"/>
<path d="M97.69 15.3398L64.26 33.2098L64.38 52.4798L124.97 17.3598L125.7 0.0498047L97.69 15.3398Z" fill="#7766F6"/>
<path d="M85.78 70.1602V94.8801L64.59 106.35V82.5201L85.76 70.1702L85.78 70.1602Z" fill="#7766F6"/>
<path d="M64.59 82.5201V106.35L43.41 94.8801V70.1602L43.42 70.1702L64.59 82.5201Z" fill="#7766F6"/>
<path d="M110.76 57.7298L97.66 65.4498V91.2498L125.7 78.3098L125.45 49.2998L110.76 57.7298Z" fill="#7766F6"/>
</g>
<defs>
<clipPath id="clip0">
<rect width="141.61" height="160" fill="white"/>
</clipPath>
</defs>
</svg>
